#format: frame checksums
#version: 2
#hash: MD5
#tb 0: 1/8000
#media_type 0: audio
#codec_id 0: pcm_s16le
#sample_rate 0: 8000
#channel_layout_name 0: mono
#stream#, dts,        pts, duration,     size, hash
0,          0,          0,      256,      512, 05c2c5ce2fe48d155f8ca4b871cbd217
0,        256,        256,      256,      512, e7f2c551ee7b62bbf6fefcece4460558
0,        512,        512,      256,      512, 146cd5446a6359654e9fe5daa6e6b1e2
0,        768,        768,      256,      512, 3baa8e9ecaeca5779d4dbb6d243612b7
0,       1024,       1024,      256,      512, 122b9684e93c4f68461fd2a7fd428a90
0,       1280,       1280,      256,      512, ccc99a63aacb01ce888e7833119359c3
0,       1536,       1536,      256,      512, 306001bdd8394064c32bdd269a162f14
0,       1792,       1792,      256,      512, b87a1c14c98eb6cc6449cd23deae3366
0,       2048,       2048,      256,      512, f7383ab6128b14da2f4328e1fbd65dcf
0,       2304,       2304,      256,      512, 0f0545632cf3a3573a54730a5c265c44
0,       2560,       2560,      256,      512, b3c4ad490da0299e20a7c35f9d5ea5e1
0,       2816,       2816,      256,      512, f75ce59b6e162b71ee5bd906cae5dc3b
0,       3072,       3072,      256,      512, 3ef5a63e598854918404758f7a971195
0,       3328,       3328,      256,      512, 471b6b46bfa9a9d94cd643d2434cf46f
0,       3584,       3584,      256,      512, 3adf549c9196c028c4f5a1148b6fda37
0,       3840,       3840,      256,      512, a62b432126547a5c5cfea4144dbcb844
0,       4096,       4096,      256,      512, 3c05f4b314a55654c2052d3f42c0601d
0,       4352,       4352,      256,      512, 26ef786ebee25f6ffc1a95140ff64a9f
0,       4608,       4608,      256,      512, 8a3ce190ca162df47c0fa0fa23dcd128
0,       4864,       4864,      256,      512, de1cc36f40d9b008f61d7273db907478
0,       5120,       5120,      256,      512, 45876395efd7390dcbe1d5c30813b976
0,       5376,       5376,      256,      512, 301d9938c68e6d31fde878fc5b50f5be
0,       5632,       5632,      256,      512, bc21664bc19168b9b35664b2a7a4aea4
0,       5888,       5888,      256,      512, 86a09f2d05926e45f1cabf6b44d99e20
0,       6144,       6144,      256,      512, 3588037e4e32e160d630a6f1416094d7
0,       6400,       6400,      256,      512, 960b21c47ad8f4193b34ca06f843a419
0,       6656,       6656,      256,      512, ff1159c002fc1ad3ba691d3b2cae69b9
0,       6912,       6912,      256,      512, 2a8d24f84a386a40f8337ed2645dbad0
0,       7168,       7168,      256,      512, d84fc2f44de2603e84eb4a094cfcf6e2
0,       7424,       7424,      256,      512, c4d0745d0f2f815cf2d62f90d9637bba
0,       7680,       7680,      256,      512, ff67040fdb051b8958a1a80385368154
0,       7936,       7936,      256,      512, 145ffbed404825ec18d44c4159c2f76d
0,       8192,       8192,      256,      512, cd4955707be0eac0b1e9c518452aff02
0,       8448,       8448,      256,      512, 1683980849a065ccc2f0063fbed0aebd
0,       8704,       8704,      256,      512, 4098dd3e24a930cbe6259e1e174fccd9
0,       8960,       8960,      256,      512, cd02e2a0e5265f307ec8564c3711c4a8
0,       9216,       9216,      256,      512, 3063f032e2133ac45aae8121a270ff7e
0,       9472,       9472,      256,      512, 87c94eec5891cf25ae0a7ddde2bbbce8
0,       9728,       9728,      256,      512, 95cc5d1bea3829cf7acd2d33fb5f5bd3
0,       9984,       9984,      256,      512, 0b6a5a21df3dfcf2a15cc6527c3d54eb
0,      10240,      10240,      256,      512, 35c9e7ad2dca9fd672aec003eb02f6ff
0,      10496,      10496,      256,      512, 843aea9d4ca83ca8a47172c5b03f4097
0,      10752,      10752,      256,      512, 17aa8d6d442c4f7770835b49f22ab1df
0,      11008,      11008,      256,      512, 9e0bbc7b40f498a143e86f3ca557d6b0
0,      11264,      11264,      256,      512, b98cd1ad0a0599b5a3fbe910ad63b146
0,      11520,      11520,      256,      512, fbdf83d652e3f1f1a26d98753c70cbf0
0,      11776,      11776,      256,      512, 48fe034331f983dc8c5b73c09737fbaf
0,      12032,      12032,      256,      512, 0207c3376aaa1844c4449d137f73b82e
0,      12288,      12288,      256,      512, 1df84ec1ce5e7fe5479a39ed630daf8b
0,      12544,      12544,      256,      512, 5f40a24808df553edd69326ae855f36f
0,      12800,      12800,      256,      512, 2940982e27d72aa8f4c4374edec41004
0,      13056,      13056,      256,      512, 297a1c4b0a72dd8caee97dbc3aeef140
0,      13312,      13312,      256,      512, 33306008c0fe7cd3ce75f17fde2c480d
0,      13568,      13568,      256,      512, 493ffbbe1e4806d74f157dd24b2c098f
0,      13824,      13824,      256,      512, 7d7ede0168547f02b1e3a879a524e51b
0,      14080,      14080,      256,      512, cf95d212c07a10055f20bde0e778ba70
0,      14336,      14336,      256,      512, 700aa5e4215382860b08a0d07658b9bd
0,      14592,      14592,      256,      512, fa1bdbfb2aa65bd8be937dd4c1e5d122
0,      14848,      14848,      256,      512, dc2962b8f689a771bc8af79686f1b779
0,      15104,      15104,      256,      512, eaae511a4dc5bce17f56b6d4a9119fe9
0,      15360,      15360,      256,      512, 58a8159c3aa221c62b74baf7963be352
0,      15616,      15616,      256,      512, ee229a60d67adc9583cb3735d88f31a2
0,      15872,      15872,      256,      512, 42a4e06dd20f9fd9a8c5c911675803e5
0,      16128,      16128,      256,      512, d089d9aae43c01df39c082f31daeffbe
0,      16384,      16384,      256,      512, f030ad57abd8d48ef124c444aae2b53e
0,      16640,      16640,      256,      512, 287b60a558fe18371c02019ec443da09
0,      16896,      16896,      256,      512, 2c23989c4e6e211356e0b00957d5993f
0,      17152,      17152,      256,      512, d00b2a33571f0d7c41022701cbbaf0d5
0,      17408,      17408,      256,      512, 92b9ab727b349b6517d5928c81360809
0,      17664,      17664,      256,      512, ed6fcccc2cf59351123cfa2236511ea5
0,      17920,      17920,      256,      512, ec80bbca8a1ce87f206bee1b90d132ad
0,      18176,      18176,      256,      512, fdc685cbb3eb4e0d1291b293147c7db2
0,      18432,      18432,      256,      512, 17c4f9fd66027263bfb233ee055f7091
0,      18688,      18688,      256,      512, dcb38885883610cb415414907c6c8041
0,      18944,      18944,      256,      512, b2f6e08a70eaaefc7b6d91f1c5ec590a
0,      19200,      19200,      256,      512, 02bf40b9c255200e1f612d6d0ed202e3
0,      19456,      19456,      256,      512, 51982634d4f6a350716a0f61862cbe73
0,      19712,      19712,      256,      512, 36a326a26542a9623939d31bba8cc7d4
0,      19968,      19968,      256,      512, ab5067ebf1030b32cfa56e003986edb6
0,      20224,      20224,      256,      512, fb4b8864983695d39dbf78d0a3ad1c4c
0,      20480,      20480,      256,      512, 22a34c4abc7e8ac25430e3061f665f70
0,      20736,      20736,      256,      512, e00d6038edb43654c9078159c031b494
0,      20992,      20992,      256,      512, 25ca9f59002e07ef17930ed20e0b726b
0,      21248,      21248,      256,      512, b46d8d8a593fae6896e6aee651c993cd
0,      21504,      21504,      256,      512, bcad6fccf44298f3c065d86ef8608614
0,      21760,      21760,      256,      512, 52bafc7f9e257942e6d4ec743a846ed8
0,      22016,      22016,      256,      512, a63d213be976966b16601bd6ac85b1cd
0,      22272,      22272,      256,      512, 7875fa574274b5ba1e11b601dcdfe98e
0,      22528,      22528,      256,      512, fed1495f42b814fcba90be104a0d6d11
0,      22784,      22784,      256,      512, 1edcb0b92200f169dc1ef44aae030c69
0,      23040,      23040,      256,      512, 2c3dafa2008e9f9c73b55cba7480317a
0,      23296,      23296,      256,      512, 97bf6a32af2601e497c88dcef83f4a0e
0,      23552,      23552,      256,      512, 934c94981018871ed484a67e8f210514
0,      23808,      23808,      256,      512, 595050582ec693326d09f004a9bf84f2
0,      24064,      24064,      256,      512, 1fb162be1a9bdf42615640ac46eea958
0,      24320,      24320,      256,      512, 0d7694eab437f41f8ecfebd41b2770ae
0,      24576,      24576,      256,      512, d7b9430cfb0cd039a8308fa99fa955fb
0,      24832,      24832,      256,      512, 95f7d73c18957ad4ab5b75be3c10b157
0,      25088,      25088,      256,      512, e1cdfc9ef9b4dba9c989e11834d233cb
0,      25344,      25344,      256,      512, 8233f57a526ac3ac16ca74794c2b5417
0,      25600,      25600,      256,      512, 42cf0f0a404fd9e420b134d38bfaf27b
0,      25856,      25856,      256,      512, d02a63fed1c1818c6f6bbe5051e7bcc6
0,      26112,      26112,      256,      512, 21f026d149990a6fdc9921d355155af4
0,      26368,      26368,      256,      512, eda6cb22ff953fc514a401c6d340d73f
0,      26624,      26624,      256,      512, 9e20f5ef9bb5f8d245203b4a5ef74148
0,      26880,      26880,      256,      512, 180b7a52e34353a662f61b90f9a6f977
0,      27136,      27136,      256,      512, de40d11b83ff121536f70cc5f82f116c
0,      27392,      27392,      256,      512, 536ba647f313b043ba0865dee602ce41
0,      27648,      27648,      256,      512, 43e005a2a1e3edf62ff4c688c414b0b0
0,      27904,      27904,      256,      512, 4a5cc7082775f124af7355b21a72a484
0,      28160,      28160,      256,      512, 87224208fedaba7f6421488787384eaa
0,      28416,      28416,      256,      512, ef0dc52c0e2aed48723d3499b153a4b1
0,      28672,      28672,      256,      512, 2b2254cb8242d98255b8a16c204c6c3f
0,      28928,      28928,      256,      512, 856d38f78146ac58d3a57446ea1a2aa2
0,      29184,      29184,      256,      512, 78060533f80b156fbb8beeb72587abeb
0,      29440,      29440,      256,      512, 274e56ac7c31356a0eeaaabe41b5cffa
0,      29696,      29696,      256,      512, bd4f6de0e4b2a0c0ee5d9ac7d10db0d8
0,      29952,      29952,      256,      512, db0effb62ab04694721606e0c1120df7
0,      30208,      30208,      256,      512, 891e5386b7ce41d9a340a166e55f637f
0,      30464,      30464,      256,      512, dfde4c4046f0b68924bf518aa2e1a909
0,      30720,      30720,      256,      512, 08ac5f9df5bfa5ad9b9bd8963356df7c
0,      30976,      30976,      256,      512, e0316589f0fb9ccfd901b7e6d2eeb42e
0,      31232,      31232,      256,      512, 9718764f544f2dd3d0aa37d7eeae59c4
0,      31488,      31488,      256,      512, aa396ffb9a1e91f4edb27dbe5202a0b9
0,      31744,      31744,      256,      512, db4a72bcbca208e98948ffb28562b5c6
0,      32000,      32000,      256,      512, c69c2cc4fe3ea79f3b897df221281ca7
0,      32256,      32256,      256,      512, 8adaf24bac2361a568514c3dc563c697
0,      32512,      32512,      256,      512, 4eef24d374b4ffab842eb9390c60dc61
0,      32768,      32768,      256,      512, 1a3f44ac6469c6547be65d0a8e467a00
0,      33024,      33024,      256,      512, dc7740bb6a8baff3f137b865b0fd9b76
0,      33280,      33280,      256,      512, b149d403fd87963be6f4cecd42d01da9
0,      33536,      33536,      256,      512, 49f4d73975d73a36e16b7ef90e8f777a
0,      33792,      33792,      256,      512, 9781dd7b02d3c52cb67681f4771feb20
0,      34048,      34048,      256,      512, 5568087a196533f62f97c6f060b3af41
0,      34304,      34304,      256,      512, fd1dc398e285dfb1ce5ee8205ae89309
0,      34560,      34560,      256,      512, 4036a0cf41fbb413823cc09ae137c556
0,      34816,      34816,      256,      512, f3744d98e42ac61aacaa4155909cb1e2
0,      35072,      35072,      256,      512, 49eaa9de3985969e84fa57c74b2bd5ec
0,      35328,      35328,      256,      512, 11c1d14da7f614dbda64c545f479a98c
0,      35584,      35584,      256,      512, 753cbabc4c17baa73c17c94c0e594b7f
0,      35840,      35840,      256,      512, a1d8eaa2bbc9d0fc013ad4414db66f19
0,      36096,      36096,      256,      512, b32155f19b5d6160df35249e2438b3f7
0,      36352,      36352,      256,      512, 2bcf49dca873ac470a45bc39d1ab0e19
0,      36608,      36608,      256,      512, 52aa2fc2db2065cbe918386d43033b8b
0,      36864,      36864,      256,      512, 5ab1d7783c6d64579d41005e414521a1
0,      37120,      37120,      256,      512, dd3c2a6927745a68d0dbde2584f713e2
0,      37376,      37376,      256,      512, 1944e5b5300fe3424b79d94b0f1e9f9f
0,      37632,      37632,      256,      512, f4eacef4e94ecad003d1ea90b62cf898
0,      37888,      37888,      256,      512, 9fc0e89bdf7b4b3048133109b3a34654
0,      38144,      38144,      256,      512, 31f13fd6948ed76a208445cbebf28284
0,      38400,      38400,      256,      512, 61c8bbc01c8ce63c41c6aa715eb8eb6e
0,      38656,      38656,      256,      512, 8afe2401817388e2d067f991eb02051a
0,      38912,      38912,      256,      512, d89c74464e446c111766f599245c997c
0,      39168,      39168,      256,      512, 9fdb85f969c03101ecca61277a394b5e
0,      39424,      39424,      256,      512, 50e285791fce46db81237993b639edf9
0,      39680,      39680,      256,      512, 6daea84a94ca4f7ba1616a11e49c6014
0,      39936,      39936,      256,      512, c67946dce635cf1c49956aac6aaa6b19
0,      40192,      40192,      256,      512, b48491f0b8e73c9e13fc65bc340ff97f
0,      40448,      40448,      256,      512, 8e784b030083495563d29102ef65d661
0,      40704,      40704,      256,      512, 18c8e403addf579695b1521608c58d92
0,      40960,      40960,      256,      512, 5dacf376a5eb58d6e81c2f50958df914
0,      41216,      41216,      256,      512, 3a4a5805bd1bfebc236d9650e554752e
0,      41472,      41472,      256,      512, b23cabbf67a3f0f8412befa352981857
0,      41728,      41728,      256,      512, 9f8d85a2e0388a772f74c81ce27fb53c
0,      41984,      41984,      256,      512, 8f0a9a5b9d5abaaf420739e22db505b7
0,      42240,      42240,      256,      512, 72d7743468c298d1d4dc82e38661f7b9
0,      42496,      42496,      256,      512, e49721e548ef48f9bd59d23454099f96
0,      42752,      42752,      256,      512, 9c13b95dfba0a9d080c1cdfcaa21ac22
0,      43008,      43008,      256,      512, 587dc6b518f42ffce75aef2f3f06265a
0,      43264,      43264,      256,      512, 72290c8907d59587b780af1099bb5ae6
0,      43520,      43520,      256,      512, 44ed8463c485513155a10b0ed18330f3
0,      43776,      43776,      256,      512, c39628c3c975cda6112603ed322a2503
0,      44032,      44032,      256,      512, eaa107666f4296efa5a5e989e5a49c7b
0,      44288,      44288,      256,      512, 73410639824fc02307b4a93aefac4988
0,      44544,      44544,      256,      512, a06389338d96e89d4af7b45db7d84541
0,      44800,      44800,      256,      512, beae98b418e5a996327187e112875586
0,      45056,      45056,      256,      512, 000ce3617ef02ee678d0233ed6376cfa
0,      45312,      45312,      256,      512, f1c8464edad1f717168a0823ce7a2686
0,      45568,      45568,      256,      512, 587f38edc5ef83f6aa49717f5bf55056
0,      45824,      45824,      256,      512, 6f143d33bac6a682d13cea603c4c45b8
0,      46080,      46080,      256,      512, 7ed1ca97b67944f6cba855488a27015e
0,      46336,      46336,      256,      512, 9918c16592e0a5f6de3aaa9b478b0bfe
0,      46592,      46592,      256,      512, 37a316fed294bf197389bce749d6704d
0,      46848,      46848,      256,      512, 6f845f9ada8bf74a6436c389690cf5f1
0,      47104,      47104,      256,      512, 4de5a002ea3c40ebf650a6bac2476349
0,      47360,      47360,      256,      512, 0f06ea62b14bc93383f53adac1ef2ecd
0,      47616,      47616,      256,      512, 8d10c15182e01041d3176acef6ea24e8
0,      47872,      47872,      128,      256, 84264f5a7d87e48e5749f389b62b9ceb
